<?xml version="1.0" encoding="UTF-8"?>
<!DOCTYPE svg PUBLIC "-//W3C//DTD SVG 1.1//EN" "http://www.w3.org/Graphics/SVG/1.1/DTD/svg11.dtd">
<svg xmlns="http://www.w3.org/2000/svg" version="1.1" width="500px" height="500px" style="shape-rendering:geometricPrecision; text-rendering:geometricPrecision; image-rendering:optimizeQuality; fill-rule:evenodd; clip-rule:evenodd" xmlns:xlink="http://www.w3.org/1999/xlink">
<g><path style="opacity:1" fill="#21a663" d="M -0.5,-0.5 C 166.167,-0.5 332.833,-0.5 499.5,-0.5C 499.5,166.167 499.5,332.833 499.5,499.5C 332.833,499.5 166.167,499.5 -0.5,499.5C -0.5,332.833 -0.5,166.167 -0.5,-0.5 Z"/></g>
<g><path style="opacity:1" fill="#fdfefd" d="M 62.5,49.5 C 187.167,49.3333 311.834,49.5 436.5,50C 442,52.8333 446.167,57 449,62.5C 449.667,187.167 449.667,311.833 449,436.5C 446.083,442.418 441.583,446.585 435.5,449C 311.167,449.667 186.833,449.667 62.5,449C 57,446.167 52.8333,442 50,436.5C 49.3333,311.833 49.3333,187.167 50,62.5C 53.0248,56.9769 57.1915,52.6436 62.5,49.5 Z"/></g>
<g><path style="opacity:1" fill="#21a663" d="M 423.5,247.5 C 382.281,248.152 341.281,247.485 300.5,245.5C 296.836,222.696 283.836,208.196 261.5,202C 229.619,197.85 208.785,211.017 199,241.5C 198.503,243.81 198.337,246.143 198.5,248.5C 157.5,248.5 116.5,248.5 75.5,248.5C 75.5,190.833 75.5,133.167 75.5,75.5C 191.5,75.5 307.5,75.5 423.5,75.5C 423.5,132.833 423.5,190.167 423.5,247.5 Z"/></g>
<g><path style="opacity:1" fill="#26a765" d="M 240.5,210.5 C 264.105,208.214 280.605,217.881 290,239.5C 295.09,264.154 286.257,281.654 263.5,292C 238.425,298.377 220.591,289.877 210,266.5C 203.7,238.761 213.867,220.095 240.5,210.5 Z"/></g>
<g><path style="opacity:1" fill="#fafdfb" d="M 245.5,283.5 C 245.5,281.5 245.5,279.5 245.5,277.5C 243.167,277.5 240.833,277.5 238.5,277.5C 238.5,274.5 238.5,271.5 238.5,268.5C 244.176,268.666 249.843,268.499 255.5,268C 258.439,263.982 258.105,260.315 254.5,257C 237.765,258.272 230.931,250.772 234,234.5C 236.729,230.221 240.562,227.554 245.5,226.5C 245.5,224.833 245.5,223.167 245.5,221.5C 248.5,221.5 251.5,221.5 254.5,221.5C 254.5,223.167 254.5,224.833 254.5,226.5C 256.833,226.5 259.167,226.5 261.5,226.5C 261.5,229.5 261.5,232.5 261.5,235.5C 256.156,235.334 250.823,235.501 245.5,236C 244.584,236.374 243.75,236.874 243,237.5C 241.996,240.993 242.496,244.159 244.5,247C 263.245,246.392 269.745,254.892 264,272.5C 261.448,275.359 258.281,277.026 254.5,277.5C 254.5,279.5 254.5,281.5 254.5,283.5C 251.5,283.5 248.5,283.5 245.5,283.5 Z"/></g>
<g><path style="opacity:1" fill="#59bc8a" d="M 300.5,245.5 C 341.281,247.485 382.281,248.152 423.5,247.5C 382.67,248.499 341.67,248.832 300.5,248.5C 300.5,247.5 300.5,246.5 300.5,245.5 Z"/></g>
<g><path style="opacity:1" fill="#21a663" d="M 300.5,256.5 C 341.167,256.5 381.833,256.5 422.5,256.5C 422.5,311.833 422.5,367.167 422.5,422.5C 306.833,422.5 191.167,422.5 75.5,422.5C 75.5,366.833 75.5,311.167 75.5,255.5C 116.5,255.5 157.5,255.5 198.5,255.5C 202.524,285.024 219.357,301.024 249,303.5C 275.653,302.517 292.653,289.184 300,263.5C 300.497,261.19 300.663,258.857 300.5,256.5 Z"/></g>
<g><path style="opacity:1" fill="#8ed2af" d="M 238.5,277.5 C 240.833,277.5 243.167,277.5 245.5,277.5C 245.5,279.5 245.5,281.5 245.5,283.5C 244.549,282.081 244.216,280.415 244.5,278.5C 242.265,278.795 240.265,278.461 238.5,277.5 Z"/></g>
<g><path style="opacity:1" fill="#42b176" d="M 300.5,256.5 C 341.33,255.501 382.33,255.168 423.5,255.5C 423.5,311.5 423.5,367.5 423.5,423.5C 307.332,423.833 191.332,423.5 75.5,422.5C 191.167,422.5 306.833,422.5 422.5,422.5C 422.5,367.167 422.5,311.833 422.5,256.5C 381.833,256.5 341.167,256.5 300.5,256.5 Z"/></g>
</svg>
